# xmcd CD database file
#
# Track frame offsets:
#	150
#	13001
#	28385
#	43854
#	56339
#	73267
#	88030
#	101729
#	119767
#	135156
#	146975
#	164687
#	177595
#	192126
#	205005
#	221921
#	236750
#	248212
#	261263
#	274011
#
# Disc length: 3858 seconds
#
# Revision: 1
# Processed by: cddbd v1.5.2PL0 Copyright (c) Steve Scherf et al.
# Submitted via: CDex 1.60beta1-cs1
#
DISCID=400f1014
DTITLE=Luca e Ramalho - Luca e Ramalho
DYEAR=2007
DGENRE=Sertanejo
TTITLE0=Vê Se Me Esqueçe
TTITLE1=Bandida
TTITLE2=Não Foi Brinquedo
TTITLE3=Não Faz Isso Não
TTITLE4=Lâmpada Mágica
TTITLE5=Baby Baby
TTITLE6=Tá Com Raiva de Mim
TTITLE7=Faltou Coragem
TTITLE8=Pra Nunca Dizer Adeus
TTITLE9=Camisa Branca
TTITLE10=Dói Dói
TTITLE11=Tá Ficando Bom
TTITLE12=Não Sei o Nome Dela
TTITLE13=Cego, Surdo e Mudo
TTITLE14=Don't Cry
TTITLE15=O Telefone
TTITLE16=O Meu Amor
TTITLE17=Papo Que Rola
TTITLE18=Mulher Gosta é de Dinheiro
TTITLE19=Bebe Pra Dormir
EXTD=YEAR: 2007
EXTT0=
EXTT1=
EXTT2=
EXTT3=
EXTT4=
EXTT5=
EXTT6=
EXTT7=
EXTT8=
EXTT9=
EXTT10=
EXTT11=
EXTT12=
EXTT13=
EXTT14=
EXTT15=
EXTT16=
EXTT17=
EXTT18=
EXTT19=
PLAYORDER=
